<?xml version="1.0" encoding="UTF-8"?>
<svg width="297px" height="26px" viewBox="0 0 297 26" version="1.1" xmlns="http://www.w3.org/2000/svg" xmlns:xlink="http://www.w3.org/1999/xlink">
    <title>Group 46</title>
    <defs>
        <polygon id="path-1" points="0.787162175 0.314578889 44.8836155 0.314578889 44.8836155 24.3439376 0.787162175 24.3439376"></polygon>
        <polygon id="path-3" points="0.930867531 0.314578889 54.5880167 0.314578889 54.5880167 24.3439376 0.930867531 24.3439376"></polygon>
        <polygon id="path-5" points="0.154072161 0.314578889 44.2487381 0.314578889 44.2487381 24.3435801 0.154072161 24.3435801"></polygon>
    </defs>
    <g id="Page-1" stroke="none" stroke-width="1" fill="none" fill-rule="evenodd">
        <g id="Artboard" transform="translate(-99.000000, -38.000000)">
            <g id="Group-46" transform="translate(99.000000, 38.000000)">
                <g id="Group-3" transform="translate(48.259261, 0.285159)">
                    <mask id="mask-2" fill="white">
                        <use xlink:href="#path-1"></use>
                    </mask>
                    <g id="Clip-2"></g>
                    <path d="M39.5822462,0.314400151 L39.5822462,19.0908276 L7.82229006,19.0908276 C7.57384423,19.0908276 7.35042173,19.0389936 7.1466604,18.9371129 C6.98043406,18.8584682 6.82850675,18.7458633 6.68551635,18.5957233 C6.65513089,18.556401 6.61938329,18.5170786 6.58363569,18.4741815 C6.25475776,18.0612967 6.08853141,17.5215079 6.08853141,16.8619647 L6.08853141,0.314400151 L0.787162175,0.314400151 L0.787162175,19.0908276 C0.787162175,19.9505574 0.930152579,20.701257 1.20898387,21.3465012 C1.48781516,21.989958 1.86137759,22.5368963 2.32430902,22.9801666 C2.78366569,23.428799 3.31451757,23.7666138 3.90792775,23.9953985 C4.50491268,24.2259705 5.1304957,24.3439376 5.79003894,24.3439376 L44.8836155,24.3439376 L44.8836155,0.314400151 L39.5822462,0.314400151 Z" id="Fill-1" fill="#000000" mask="url(#mask-2)"></path>
                </g>
                <g id="Group-6" transform="translate(96.518523, 0.285159)">
                    <mask id="mask-4" fill="white">
                        <use xlink:href="#path-3"></use>
                    </mask>
                    <g id="Clip-5"></g>
                    <polygon id="Fill-4" fill="#000000" mask="url(#mask-4)" points="48.2964389 0.314400151 37.4953013 18.9925217 26.7424229 0.314400151 20.4508451 0.314400151 24.565394 7.49788058 18.0217956 18.9925217 7.2242327 0.314400151 0.930867531 0.314400151 14.5560657 24.3439376 21.4911003 24.3439376 27.7326314 13.2943541 34.027784 24.3439376 40.9628186 24.3439376 54.5880167 0.314400151"></polygon>
                </g>
                <path d="M198.668544,5.85338369 L198.668544,0.600273717 L154.573878,0.600273717 L154.573878,24.6298111 L198.668544,24.6298111 L198.668544,19.3749138 L159.87346,19.3749138 L159.87346,5.85338369 L198.668544,5.85338369 Z M162.475885,15.213893 L198.668544,15.213893 L198.668544,9.96435781 L162.475885,9.96435781 L162.475885,15.213893 Z" id="Fill-7" fill="#000000"></path>
                <g id="Group-11" transform="translate(203.466408, 0.285159)">
                    <mask id="mask-6" fill="white">
                        <use xlink:href="#path-5"></use>
                    </mask>
                    <g id="Clip-10"></g>
                    <path d="M7.34112735,19.0904701 C6.84244832,19.0904701 6.40632758,18.8867088 6.02382825,18.473824 C5.64669106,18.0609392 5.4554414,17.5229378 5.4554414,16.8616072 L5.4554414,0.314042675 L0.154072161,0.314042675 L0.154072161,19.0904701 C0.154072161,19.9501999 0.295275185,20.7008996 0.577681233,21.3461438 C0.856512521,21.991388 1.23007495,22.5365389 1.68943163,22.9798091 C2.15415044,23.4284415 2.68142755,23.7662563 3.27841249,23.995041 C3.87182267,24.2274004 4.49919307,24.3435801 5.16052369,24.3435801 L44.2487381,24.3435801 L44.2487381,19.0904701 L7.34112735,19.0904701 Z" id="Fill-9" fill="#000000" mask="url(#mask-6)"></path>
                </g>
                <path d="M296.341714,3.67242255 C296.062883,3.01109193 295.689321,2.4587915 295.224602,2.01373386 C294.767033,1.56510147 294.227244,1.22013712 293.619535,0.973478672 C293.004676,0.725032845 292.384455,0.599916241 291.760659,0.599916241 L252.670658,0.599916241 L252.670658,5.85302622 L289.630102,5.85302622 C290.223512,5.85302622 290.67572,6.05678754 290.988511,6.46967233 C291.304877,6.88255713 291.462167,7.42055852 291.462167,8.08188914 L291.462167,17.1474808 C291.462167,17.807024 291.272705,18.3450254 290.891993,18.7579102 C290.509493,19.170795 290.073373,19.3763437 289.578268,19.3763437 L257.972027,19.3763437 L257.972027,8.45008943 L252.670658,8.45008943 L252.670658,24.6294537 L291.760659,24.6294537 C292.384455,24.6294537 293.004676,24.5114866 293.619535,24.2791272 C294.227244,24.0521299 294.767033,23.7143151 295.224602,23.2656827 C295.689321,22.8224124 296.062883,22.2754741 296.341714,21.6302299 C296.620546,20.9867731 296.761749,20.2360735 296.761749,19.3763437 L296.761749,5.85302622 C296.761749,5.05942947 296.620546,4.33196579 296.341714,3.67242255" id="Fill-12" fill="#000000"></path>
                <path d="M43.6710568,3.67242255 C43.3922255,3.01109193 43.0186631,2.4587915 42.5539443,2.01373386 C42.096375,1.56510147 41.5565862,1.22013712 40.948877,0.973478672 C40.3340183,0.725032845 39.7137974,0.599916241 39.0900017,0.599916241 L0,0.599916241 L0,5.85302622 L36.9594447,5.85302622 C37.5528549,5.85302622 38.0050621,6.05678754 38.3178536,6.46967233 C38.6342198,6.88255713 38.7915093,7.42055852 38.7915093,8.08188914 L38.7915093,17.1474808 C38.7915093,17.807024 38.602047,18.3450254 38.221335,18.7579102 C37.8388357,19.170795 37.402715,19.3763437 36.9076107,19.3763437 L5.30136924,19.3763437 L5.30136924,8.45008943 L0,8.45008943 L0,24.6294537 L39.0900017,24.6294537 C39.7137974,24.6294537 40.3340183,24.5114866 40.948877,24.2791272 C41.5565862,24.0521299 42.096375,23.7143151 42.5539443,23.2656827 C43.0186631,22.8224124 43.3922255,22.2754741 43.6710568,21.6302299 C43.9498881,20.9867731 44.0910911,20.2360735 44.0910911,19.3763437 L44.0910911,5.85302622 C44.0910911,5.05942947 43.9498881,4.33196579 43.6710568,3.67242255" id="Fill-14" fill="#000000"></path>
            </g>
        </g>
    </g>
</svg>